<svg width="119" height="120" viewBox="0 0 119 120" fill="none" xmlns="http://www.w3.org/2000/svg">
<path d="M34.7673 69.5518C34.6583 69.197 34.5311 68.8556 34.4347 68.4913L10.0989 77.3894C10.535 77.6386 10.9854 77.864 11.4421 78.0799L34.7681 69.551L34.7673 69.5518Z" fill="#8E4585"/>
<path d="M32.9789 60C32.9789 59.6586 32.9977 59.3386 33 59H0.0280966C0.0234139 59.3357 0 59.6629 0 60.0014C0 60.34 0.0226334 60.6643 0.0280966 61H33C32.9977 60.6614 32.9789 60.3414 32.9789 60Z" fill="#8E4585"/>
<path d="M36.5096 73.8444C36.3389 73.5174 36.1722 73.1872 36.0149 72.8491L23.2841 80.2334C23.864 80.3096 24.4329 80.4073 24.9932 80.5239L36.5096 73.8444Z" fill="#8E4585"/>
<path d="M33.7654 65.0821C33.7124 64.7185 33.6705 64.3487 33.6295 63.978L2.39252 69.5113C2.58136 69.8613 2.79786 70.1931 3.00567 70.5305L33.7646 65.0821H33.7654Z" fill="#8E4585"/>
<path d="M39.0728 77.7544C38.8389 77.4687 38.6201 77.1702 38.3996 76.8718L31.2354 82.9107C31.5656 83.1107 31.8809 83.3306 32.1962 83.5513L39.072 77.7552L39.0728 77.7544Z" fill="#8E4585"/>
<path d="M84.5222 50.1776C84.6407 50.5253 84.7498 50.8801 84.8549 51.238L109.016 42.4035C108.565 42.1582 108.097 41.9407 107.625 41.7304L84.5222 50.1776Z" fill="#8E4585"/>
<path d="M85.6505 54.7632C85.7098 55.1267 85.7651 55.4918 85.8117 55.8625L116.978 50.3419C116.786 49.9935 116.574 49.6585 116.362 49.3235L85.6505 54.7632Z" fill="#8E4585"/>
<path d="M42.4144 81.0501C42.1236 80.8199 41.8542 80.5691 41.5761 80.3254L35.9075 87.1121C36.1375 87.4137 36.3682 87.7138 36.5807 88.0344L42.4144 81.0501Z" fill="#8E4585"/>
<path d="M73.2705 36.7591L80.0871 24.8987C79.978 24.3264 79.9006 23.7279 79.8311 23.1231L72.2836 36.2558C72.6178 36.417 72.9465 36.5853 73.2705 36.7599V36.7591Z" fill="#8E4585"/>
<path d="M118.973 61C118.977 60.6657 119 60.3386 119 60.0014C119 59.6643 118.977 59.3357 118.973 59H86C86.0023 59.3343 86.0117 59.6629 86.0117 60C86.0117 60.3371 86.0023 60.6657 86 61H118.973Z" fill="#8E4585"/>
<path d="M45.4051 83.0242L39.1108 93.9765C39.2396 94.5044 39.3628 95.0378 39.4561 95.5958L46.3675 83.5703C46.0341 83.4029 45.7275 83.2052 45.4051 83.0242Z" fill="#8E4585"/>
<path d="M59.817 86.041C59.1966 86.041 58.6104 86.0096 58 86V119.949C58.6061 119.965 59.2037 120 59.817 120C59.8799 120 59.9385 119.995 60 119.995V86.0386C59.9385 86.0386 59.8785 86.041 59.817 86.041Z" fill="#8E4585"/>
<path d="M45.4051 36.9742C45.7267 36.7932 46.0341 36.5948 46.3675 36.4281L39.4561 24.4018C39.362 24.9598 39.2396 25.494 39.1108 26.0219L45.4051 36.9742Z" fill="#8E4585"/>
<path d="M73.2705 83.2386C72.9457 83.4132 72.6178 83.5815 72.2836 83.7426L79.8319 96.8762C79.9006 96.2713 79.9788 95.6728 80.0879 95.0997L73.2705 83.2386Z" fill="#8E4585"/>
<path d="M33.7654 54.9164L3.00811 49.4688C2.79952 49.8053 2.58301 50.1379 2.39496 50.488L33.6303 56.0205C33.6714 55.6498 33.7125 55.2799 33.7654 54.9164Z" fill="#8E4585"/>
<path d="M36.5096 46.1532L24.9939 39.4745C24.4337 39.5912 23.8648 39.6896 23.2849 39.765L36.0141 47.1478C36.1714 46.8097 36.3381 46.4803 36.5088 46.1524L36.5096 46.1532Z" fill="#8E4585"/>
<path d="M42.4143 38.9475L36.5799 31.9624C36.3673 32.2831 36.1374 32.5831 35.9067 32.8847L41.576 39.6722C41.8533 39.4285 42.1236 39.1777 42.4143 38.9475Z" fill="#8E4585"/>
<path d="M34.7673 50.4467L11.4437 41.9185C10.987 42.1345 10.5366 42.3599 10.0996 42.6091L34.4338 51.5064C34.5302 51.1421 34.6575 50.8007 34.7665 50.4459L34.7673 50.4467Z" fill="#8E4585"/>
<path d="M39.072 42.2439L32.1961 36.4479C31.8808 36.6686 31.5648 36.8876 31.2345 37.0877L38.3988 43.1266C38.6192 42.8282 38.8381 42.5297 39.072 42.2439Z" fill="#8E4585"/>
<path d="M54.1488 33.9841C54.506 33.9261 54.8821 33.8936 55.2471 33.8468L49.7793 2.69403C49.4364 2.89326 49.0951 3.09409 48.7656 3.31316L54.1488 33.9841Z" fill="#8E4585"/>
<path d="M50.7203 34.7604L42.0493 10.8277C41.813 11.2865 41.5807 11.7485 41.3792 12.2271L49.6663 35.0985C50.0155 34.9819 50.3624 34.8636 50.7203 34.7604Z" fill="#8E4585"/>
<path d="M50.7203 85.2372C50.3616 85.134 50.0147 85.0158 49.6663 84.8999L41.3792 107.773C41.5799 108.252 41.8122 108.714 42.0493 109.172L50.7203 85.2372Z" fill="#8E4585"/>
<path d="M55.2472 86.1517C54.8814 86.1048 54.506 86.0723 54.1481 86.0143L48.7648 116.688C49.0943 116.907 49.4365 117.108 49.7794 117.307L55.2472 86.1517Z" fill="#8E4585"/>
<path d="M58 0.0506325V34C58.6104 33.9912 59.1966 33.959 59.817 33.959C59.8799 33.959 59.9385 33.9614 60 33.9614V0.00482216C59.9385 0.00482216 59.8785 0 59.817 0C59.2037 0 58.6047 0.033755 58 0.0506325Z" fill="#8E4585"/>
<path d="M63.324 33.7428C63.693 33.7841 64.0589 33.8309 64.4223 33.8841L69.8752 2.81388C69.5401 2.61306 69.202 2.41779 68.8543 2.23682L63.324 33.7428Z" fill="#8E4585"/>
<path d="M67.8888 85.3912L76.8601 110.153C77.1098 109.728 77.3437 109.293 77.5642 108.848L68.9492 85.0729C68.5991 85.1848 68.2467 85.292 67.8888 85.3912Z" fill="#8E4585"/>
<path d="M63.324 86.2548L68.8543 117.763C69.2019 117.582 69.5401 117.386 69.8759 117.185L64.4215 86.1135C64.0589 86.1667 63.693 86.2135 63.324 86.2548Z" fill="#8E4585"/>
<path d="M76.3307 81.2803L82.4978 88.6631C82.6985 88.3289 82.8968 87.9916 83.1165 87.6764L77.1999 80.5921C76.9162 80.8279 76.6262 81.0573 76.3307 81.2803Z" fill="#8E4585"/>
<path d="M79.82 78.0402L86.7615 83.8918C87.068 83.6616 87.3936 83.4568 87.716 83.2465L80.5311 77.1901C80.3012 77.4798 80.0634 77.7632 79.8208 78.041L79.82 78.0402Z" fill="#8E4585"/>
<path d="M82.5792 45.8429C82.761 46.1636 82.9387 46.4874 83.107 46.8184L95.4286 39.6722C94.8739 39.5817 94.3303 39.4666 93.7946 39.338L82.5792 45.8429Z" fill="#8E4585"/>
<path d="M76.3307 38.7165C76.6262 38.9395 76.9154 39.1681 77.1999 39.4039L83.1165 32.3196C82.8968 32.0045 82.6993 31.6671 82.4978 31.3329L76.3315 38.7157L76.3307 38.7165Z" fill="#8E4585"/>
<path d="M79.82 41.9566C80.0634 42.2345 80.3004 42.517 80.5304 42.8068L87.7152 36.7504C87.3936 36.54 87.0673 36.3352 86.7615 36.105L79.82 41.9566Z" fill="#8E4585"/>
<path d="M84.5214 69.8208L107.627 78.2688C108.099 78.0577 108.566 77.841 109.018 77.5957L84.8549 68.7604C84.7498 69.1176 84.6399 69.4724 84.5214 69.8208Z" fill="#8E4585"/>
<path d="M85.6505 65.2345L116.363 70.6749C116.575 70.3399 116.787 70.005 116.979 69.6565L85.8117 64.1359C85.7651 64.5066 85.7106 64.8717 85.6505 65.2345Z" fill="#8E4585"/>
<path d="M82.5792 74.1556L93.7954 80.6613C94.3319 80.5327 94.8739 80.4168 95.4286 80.3263L83.1078 73.1801C82.9387 73.5111 82.7617 73.8357 82.58 74.1564L82.5792 74.1556Z" fill="#8E4585"/>
<path d="M67.8887 34.6064C68.2467 34.7048 68.5991 34.8128 68.9491 34.9255L77.5633 11.1516C77.3436 10.7071 77.1098 10.2721 76.8593 9.84583L67.8887 34.6064Z" fill="#8E4585"/>
</svg>
